<svg width="1540" height="252" viewBox="0 0 1540 252" fill="none" xmlns="http://www.w3.org/2000/svg">
<path d="M94.7656 118.887V168.75H0.242188V118.887H44.4688V52.1133V2.25H138.992V52.1133H94.7656V118.887ZM204.898 164.848V118.02L300.289 118.453V168.75H154.602V0.515625H204.898V164.848ZM350.586 118.02H300.289V0.515625H350.586V118.02ZM416.059 168.75V252H366.195V2.25H482.832V51.2461L416.059 52.1133V118.887H482.832V51.2461H532.695V168.75H416.059ZM694.426 47.3438H599.035V64.6875H694.426V108.047H599.035V125.391H694.426V168.75H598.602H548.305V47.3438H598.602V3.98438H694.426V47.3438ZM759.465 168.75H709.602V52.1133H759.465V168.75ZM853.988 52.1133H759.465V2.25H853.988V52.1133Z" fill="white"/>
<path d="M1017.02 47.3438H921.629V64.6875H1017.02V108.047H921.629V168.75H870.898V47.3438H921.195V3.98438H1017.02V47.3438ZM1177.45 118.453V168.75H1082.49V118.453H1177.45ZM1082.49 2.25V118.453H1032.2V2.25H1082.49ZM1339.61 47.3438H1244.22V64.6875H1339.61V108.047H1244.22V125.391H1339.61V168.75H1243.79H1193.49V47.3438H1243.79V3.98438H1339.61V47.3438ZM1417.66 168.75H1356.52V118.887H1417.66V168.75ZM1539.5 52.1133H1478.8V118.887H1539.5V168.75H1478.8V118.887H1417.66V107.613V69.0234V52.1133H1478.8V2.25H1539.5V52.1133ZM1417.66 52.1133H1356.52V2.25H1417.66V52.1133Z" fill="#A098FF"/>
</svg>
