<svg width="365" height="68" viewBox="0 0 365 68" fill="none" xmlns="http://www.w3.org/2000/svg">
<path d="M45.733 0.132019V9.83701H82.9242V0.132019H45.733Z" fill="#a098ff"/>
<path d="M19.5547 54.214C11.0776 54.214 3.36831 50.472 0.777222 44.778L9.0623 36.653C11.2056 39.82 15.2042 41.739 19.5227 41.739C22.4337 41.739 25.2806 40.684 25.2806 38.573C25.2806 35.917 20.0025 33.582 14.9483 31.343C8.4226 28.528 2.82451 24.242 2.82451 16.469C2.82451 7.54501 11.3015 1.17902 21.0901 1.17902C28.9595 1.17902 35.1012 4.89001 37.1166 9.97601L29.2152 17.589C27.6798 14.87 23.7131 13.686 21.2501 13.686C18.4351 13.686 16.4197 15.126 16.4197 16.885C16.4197 19.252 20.0665 20.02 25.6326 22.355C33.6937 25.745 39.0359 30.671 39.0359 38.285C39.0359 48.105 29.8871 54.214 19.5547 54.214ZM64.1306 53.991C53.0623 53.991 45.7049 46.154 45.7049 35.534L45.6408 15.126H58.5644L58.5964 35.502C58.5964 39.82 60.6756 42.571 64.0986 42.571C67.6812 42.571 69.9525 39.82 69.9525 35.502L69.9205 15.126H82.844L82.9079 35.534C82.9399 46.154 75.2625 53.991 64.1306 53.991ZM116.544 13.814C127.74 13.814 135.641 22.931 135.641 34.35C135.641 45.322 128.06 54.854 116.544 54.854C111.553 54.854 107.555 53.063 104.708 49.928V67.905H91.912V15.126H103.748L104.324 19.06C107.267 15.669 111.425 13.814 116.544 13.814ZM113.665 43.179C119.167 43.179 122.717 38.86 122.717 34.254C122.717 29.456 118.879 25.49 113.633 25.49C108.802 25.49 104.708 28.848 104.708 34.254C104.708 39.5 108.546 43.179 113.665 43.179ZM180.633 32.783C180.633 34.83 180.281 36.973 179.737 38.444V38.7H153.442C154.85 42.059 157.761 44.362 161.503 44.362C163.359 44.362 165.758 43.819 168.541 41.324L178.169 46.921C173.147 53.415 165.886 54.79 161.247 54.79C149.571 54.79 140.455 46.122 140.455 34.318C140.455 22.355 149.827 13.846 161.279 13.846C173.467 13.846 180.633 23.442 180.633 32.783ZM161.087 24.242C156.897 24.242 154.05 27.089 152.994 30.831H168.285C167.517 27.057 165.278 24.242 161.087 24.242ZM200.161 19.7C204.064 15.285 209.278 13.494 213.852 13.462L211.869 26.353C211.357 26.257 210.589 26.161 209.726 26.161C205.887 26.161 200.449 27.761 200.449 38.029V53.511H187.526V15.126H199.489L200.161 19.7Z" fill="white"/>
<path d="M253.726 14.677H233.828V23.026H250.206V34.478H233.828V53.575H220.297V1.81902H253.726V14.677ZM259.914 53.51V0.731018H272.837V53.51H259.914ZM319.909 32.782C319.909 34.83 319.557 36.973 319.013 38.444V38.7H292.719C294.126 42.059 297.038 44.362 300.779 44.362C302.635 44.362 305.035 43.818 307.816 41.323L317.446 46.921C312.423 53.414 305.161 54.79 300.524 54.79C288.848 54.79 279.73 46.121 279.73 34.318C279.73 22.355 289.103 13.846 300.556 13.846C312.744 13.846 319.909 23.442 319.909 32.782ZM300.364 24.242C296.174 24.242 293.325 27.089 292.27 30.831H307.561C306.794 27.057 304.555 24.242 300.364 24.242ZM321.331 53.51L335.246 33.262L322.26 15.125H337.231L342.989 24.05L348.713 15.125H363.683L350.632 33.23L364.581 53.51H349.737L342.955 43.114L336.367 53.51H321.331Z" fill="#a098ff"/>
</svg>
