<svg width="2314" height="494" viewBox="0 0 2314 494" fill="none" xmlns="http://www.w3.org/2000/svg">
<rect y="62" width="432" height="432" rx="145" fill="black"/>
<rect x="18.5" y="80.5" width="395" height="395" rx="126.5" stroke="white" stroke-opacity="0.03" stroke-width="37"/>
<path d="M247.227 247.616L282.286 131L133 278L186.861 293.146L133 425L298 270.65L247.227 247.616Z" fill="#A098FF"/>
<path d="M246.748 247.472L246.623 247.891L247.021 248.071L297.111 270.796L134.327 423.073L187.324 293.335L187.536 292.816L186.996 292.664L133.964 277.751L281.243 132.728L246.748 247.472Z" stroke="white" stroke-opacity="0.03"/>
<path d="M620.469 332.102V390.5H509.766V332.102H561.562V253.898V195.5H672.266V253.898H620.469V332.102ZM749.453 385.93V331.086L861.172 331.594V390.5H690.547V193.469H749.453V385.93ZM920.078 331.086H861.172V193.469H920.078V331.086ZM996.758 390.5V488H938.359V195.5H1074.96V252.883L996.758 253.898V332.102H1074.96V252.883H1133.36V390.5H996.758ZM1322.77 248.312H1211.05V268.625H1322.77V319.406H1211.05V339.719H1322.77V390.5H1210.55H1151.64V248.312H1210.55V197.531H1322.77V248.312ZM1398.95 390.5H1340.55V253.898H1398.95V390.5ZM1509.65 253.898H1398.95V195.5H1509.65V253.898Z" fill="white"/>
<path d="M1700.59 248.312H1588.87V268.625H1700.59V319.406H1588.87V390.5H1529.45V248.312H1588.36V197.531H1700.59V248.312ZM1888.48 331.594V390.5H1777.27V331.594H1888.48ZM1777.27 195.5V331.594H1718.36V195.5H1777.27ZM2078.4 248.312H1966.68V268.625H2078.4V319.406H1966.68V339.719H2078.4V390.5H1966.17H1907.27V248.312H1966.17V197.531H2078.4V248.312ZM2169.8 390.5H2098.2V332.102H2169.8V390.5ZM2312.5 253.898H2241.41V332.102H2312.5V390.5H2241.41V332.102H2169.8V318.898V273.703V253.898H2241.41V195.5H2312.5V253.898ZM2169.8 253.898H2098.2V195.5H2169.8V253.898Z" fill="#A098FF"/>
</svg>
