<svg width="1823" height="494" viewBox="0 0 1823 494" fill="none" xmlns="http://www.w3.org/2000/svg">
<path d="M131.001 217.856L164.455 106L22 247L73.3965 261.528L22 388L179.45 239.95L131.001 217.856Z" fill="#A098FF"/>
<path d="M130.521 217.713L130.396 218.13L130.793 218.311L178.564 240.096L23.3242 386.067L73.8594 261.716L74.0703 261.198L73.5322 261.047L22.9609 246.751L163.414 107.733L130.521 217.713Z" stroke="#A098FF" stroke-opacity="0.12"/>
<path d="M268.141 333.67V286.209L364.82 286.648V337.625H217.164V167.117H268.141V333.67ZM415.797 286.209H364.82V167.117H415.797V286.209ZM482.154 337.625V422H431.617V168.875H549.83V218.533L482.154 219.412V287.088H549.83V218.533H600.367V337.625H482.154ZM764.283 214.578H667.604V232.156H764.283V276.102H667.604V293.68H764.283V337.625H667.164H616.188V214.578H667.164V170.633H764.283V214.578ZM830.201 337.625H779.664V219.412H830.201V337.625ZM926.002 219.412H830.201V168.875H926.002V219.412Z" fill="white"/>
<path d="M1091.24 214.578H994.557V232.156H1091.24V276.102H994.557V337.625H943.141V214.578H994.117V170.633H1091.24V214.578ZM1253.83 286.648V337.625H1157.59V286.648H1253.83ZM1157.59 168.875V286.648H1106.62V168.875H1157.59ZM1418.19 214.578H1321.51V232.156H1418.19V276.102H1321.51V293.68H1418.19V337.625H1321.07H1270.09V214.578H1321.07V170.633H1418.19V214.578ZM1497.29 337.625H1435.33V287.088H1497.29V337.625ZM1620.78 219.412H1559.25V287.088H1620.78V337.625H1559.25V287.088H1497.29V275.662V236.551V219.412H1559.25V168.875H1620.78V219.412ZM1497.29 219.412H1435.33V168.875H1497.29V219.412Z" fill="#A098FF"/>
</svg>
