<svg width="2177" height="494" viewBox="0 0 2177 494" fill="none" xmlns="http://www.w3.org/2000/svg">
<rect y="31" width="432" height="432" rx="154" fill="#121212"/>
<rect x="18.5" y="49.5" width="395" height="395" rx="135.5" stroke="#A098FF" stroke-opacity="0.12" stroke-width="37"/>
<path d="M241.766 222.197L270.238 127L149 247L192.742 259.364L149 367L283 241L241.766 222.197Z" fill="#A098FF"/>
<path d="M241.287 222.054L241.162 222.471L241.559 222.651L282.114 241.146L150.324 365.067L193.205 259.552L193.415 259.034L192.878 258.883L149.961 246.751L269.197 128.733L241.287 222.054Z" stroke="#A098FF" stroke-opacity="0.12"/>
<path d="M588.742 287.088V337.625H492.941V287.088H537.766V219.412V168.875H633.566V219.412H588.742V287.088ZM700.363 333.67V286.209L797.043 286.648V337.625H649.387V167.117H700.363V333.67ZM848.02 286.209H797.043V167.117H848.02V286.209ZM914.377 337.625V422H863.84V168.875H982.053V218.533L914.377 219.412V287.088H982.053V218.533H1032.59V337.625H914.377ZM1196.51 214.578H1099.83V232.156H1196.51V276.102H1099.83V293.68H1196.51V337.625H1099.39H1048.41V214.578H1099.39V170.633H1196.51V214.578ZM1262.42 337.625H1211.89V219.412H1262.42V337.625ZM1358.22 219.412H1262.42V168.875H1358.22V219.412Z" fill="white"/>
<path d="M1523.46 214.578H1426.78V232.156H1523.46V276.102H1426.78V337.625H1375.36V214.578H1426.34V170.633H1523.46V214.578ZM1686.06 286.648V337.625H1589.82V286.648H1686.06ZM1589.82 168.875V286.648H1538.84V168.875H1589.82ZM1850.41 214.578H1753.73V232.156H1850.41V276.102H1753.73V293.68H1850.41V337.625H1753.29H1702.32V214.578H1753.29V170.633H1850.41V214.578ZM1929.51 337.625H1867.55V287.088H1929.51V337.625ZM2053 219.412H1991.48V287.088H2053V337.625H1991.48V287.088H1929.51V275.662V236.551V219.412H1991.48V168.875H2053V219.412ZM1929.51 219.412H1867.55V168.875H1929.51V219.412Z" fill="#A098FF"/>
</svg>
